<?xml version="1.0" encoding="UTF-8"?>
<svg width="202px" height="68px" viewBox="0 0 202 68" version="1.1" xmlns="http://www.w3.org/2000/svg" xmlns:xlink="http://www.w3.org/1999/xlink">
    <!-- Generator: Sketch 63 (92445) - https://sketch.com -->
    <title>udevs_logo_2</title>
    <desc>Created with Sketch.</desc>
    <g id="Page-1" stroke="none" stroke-width="1" fill="none" fill-rule="evenodd">
        <g id="udevs_logo_2" transform="translate(0.000100, 0.000100)">
            <path d="M67.4907,40.056 C65.6767,41.869 63.2587,42.852 60.6887,42.928 C58.1187,42.928 55.6997,41.945 53.8867,40.132 C52.0727,38.318 51.0907,35.899 51.0907,33.329 C51.0147,30.76 52.0727,28.417 53.8107,26.528 C55.6247,24.714 58.0437,23.731 60.6127,23.731 C63.1817,23.731 65.6007,24.714 67.4147,26.452 C69.2287,28.265 70.2117,30.684 70.2867,33.254 C70.2867,35.824 69.3037,38.242 67.4907,40.056 L67.4907,40.056 Z M83.6637,52.7534818 L83.5887,7.81597009e-14 L73.0077,7.81597009e-14 L73.0077,18.29 C69.6067,15.493 65.2987,13.83 60.5377,13.83 C49.8047,13.906 41.1137,22.673 41.1897,33.405 C41.2647,44.137 50.0327,52.828 60.7637,52.7534818 C65.4497,52.7534818 69.7577,51.014 73.0827,48.294 L73.0827,52.7534818 L83.6637,52.7534818 Z M156.1427,13.83 L168.3857,13.83 L150.3227,52.753 L142.3117,52.753 L123.4177,13.83 L135.7367,13.83 L146.3177,35.597 L156.1427,13.83 Z M111.1237,25.028 C112.2427,25.761 113.2327,26.603 113.9657,27.666 L96.7377,31.981 C96.8837,30.698 97.3597,29.488 97.9457,28.407 C100.6447,23.904 106.5887,22.439 111.1237,25.028 L111.1237,25.028 Z M101.3867,14.455 C90.9937,17.137 84.6927,27.752 87.3737,38.144 C90.0537,48.536 100.6697,54.837 111.0617,52.157 C119.2547,50.027 122.5707,45.535 125.0057,38.458 L114.7217,37.839 C113.2577,40.282 111.3797,41.862 108.6017,42.644 C104.8907,43.574 100.5237,42.132 98.3897,38.891 L125.9747,32.06 C124.7457,20.251 113.0667,11.443 101.3867,14.455 L101.3867,14.455 Z M193.1757,51.619 C198.1427,49.906 201.0347,46.254 201.0347,40.887 C201.0347,38.242 200.1287,35.824 198.3897,33.783 C195.8207,30.76 191.5117,28.87 185.7687,28.265 C183.8077,28.021 178.8907,27.386 178.8907,24.638 C178.8907,21.588 188.6477,20.783 191.2097,24.26 C191.8777,25.178 191.8907,26.285 191.8907,27.359 L201.0347,27.359 C201.0347,24.458 200.5427,21.765 198.9187,19.272 C197.0297,16.325 193.0997,12.848 185.2397,12.848 C179.2687,12.848 174.8857,14.435 172.1647,17.534 C170.8797,18.97 169.4437,21.464 169.4437,25.092 C169.4437,27.812 170.3507,30.155 172.1647,32.196 C173.4497,33.556 175.1127,34.69 177.1527,35.521 C179.1937,36.428 181.7627,37.033 184.7107,37.335 C187.2807,37.637 191.6637,38.469 191.6637,40.887 C191.6637,41.341 191.5117,42.097 190.3037,42.701 C187.8327,44.019 181.0827,44.111 179.4197,41.341 C178.7477,40.266 178.5887,38.887 178.5887,37.637 L169.4437,37.486 C169.4437,44.017 171.7777,49.204 178.2107,51.543 C182.4547,53.273 188.8797,53.051 193.1757,51.619 L193.1757,51.619 Z" id="Fill-6" fill="#050C2E"></path>
            <path d="M1.77635684e-14,34.0853 C1.77635684e-14,58.9613 37.335,58.9613 37.335,34.0853 L37.335,13.6793 L27.51,13.6793 L27.51,33.3293 C27.51,46.0073 9.825,46.0073 9.825,33.3293 L9.825,13.6793 L1.77635684e-14,13.6793 L1.77635684e-14,34.0853 Z M1.635,67.8263 L35.7,67.8263 L35.7,57.9823 L1.635,57.9823 L1.635,67.8263 Z" id="Fill-8" fill="#0055FF"></path>
        </g>
    </g>
</svg>